/* XPM */
static char *_30bb74cbd7f4c13db46719471b96945DFHzUTQcW3kiZ5K4[] = {
/* columns rows colors chars-per-pixel */
"50 50 142 2 ",
"   c #243C3E",
".  c #244544",
"X  c #294544",
"o  c #244B46",
"O  c #2A4B46",
"+  c #244648",
"@  c #2B4448",
"#  c #254C4B",
"$  c #2A4D4C",
"%  c #265145",
"&  c #2A5546",
"*  c #275B44",
"=  c #2C5C45",
"-  c #26524B",
";  c #2B544C",
":  c #2D5C4C",
">  c #315D46",
",  c #31544D",
"<  c #325C4C",
"1  c #385F4D",
"2  c #2A4E51",
"3  c #344E53",
"4  c #3C4E55",
"5  c #275151",
"6  c #2C5452",
"7  c #275A54",
"8  c #2D5B53",
"9  c #2E5658",
"0  c #275B59",
"q  c #2E5B5A",
"w  c #325553",
"e  c #385754",
"r  c #325C53",
"t  c #3A5C54",
"y  c #365659",
"u  c #3B555A",
"i  c #335C5A",
"p  c #3A5D5B",
"a  c #2F6144",
"s  c #2E614C",
"d  c #326345",
"f  c #386743",
"g  c #356945",
"h  c #396C45",
"j  c #33634C",
"k  c #39634D",
"l  c #356A4B",
"z  c #396C4B",
"x  c #3C7245",
"c  c #3C724B",
"v  c #2E6253",
"b  c #2E6559",
"n  c #2F685A",
"m  c #336354",
"M  c #396453",
"N  c #356A54",
"B  c #396C54",
"V  c #316259",
"C  c #366159",
"Z  c #35625B",
"A  c #336558",
"S  c #336459",
"D  c #336658",
"F  c #376758",
"G  c #35645B",
"H  c #32615D",
"J  c #35625C",
"K  c #35635D",
"L  c #37665E",
"P  c #3A645B",
"I  c #356859",
"U  c #34695B",
"Y  c #346B5B",
"T  c #376C58",
"R  c #366A5D",
"E  c #356C5D",
"W  c #3B6B59",
"Q  c #3A6A5A",
"!  c #396D5B",
"~  c #3C6E59",
"^  c #3B695D",
"/  c #386C5E",
"(  c #347157",
")  c #397155",
"_  c #36715D",
"`  c #37715F",
"'  c #3D7159",
"]  c #3B725C",
"[  c #3A735D",
"{  c #3B725F",
"}  c #3D5E64",
"|  c #356563",
" . c #346662",
".. c #3C6262",
"X. c #356E60",
"o. c #386860",
"O. c #386B61",
"+. c #3B6E60",
"@. c #386965",
"#. c #386B66",
"$. c #367262",
"%. c #397163",
"&. c #3A7460",
"*. c #3A7462",
"=. c #397564",
"-. c #3A7867",
";. c #3C7969",
":. c #42575B",
">. c #435C5C",
",. c #435D5D",
"<. c #407D46",
"1. c #416657",
"2. c #426B53",
"3. c #42645A",
"4. c #49655C",
"5. c #426B5B",
"6. c #447452",
"7. c #457D54",
"8. c #40755B",
"9. c #41765A",
"0. c #49715F",
"q. c #437A5B",
"w. c #42795E",
"e. c #427C5F",
"r. c #435560",
"t. c #445E62",
"y. c #476364",
"u. c #4C6563",
"i. c #416F66",
"p. c #456F68",
"a. c #4F6D6D",
"s. c #546D60",
"d. c #55636A",
"f. c #526C6E",
"g. c #417263",
"h. c #457560",
"j. c #497064",
"k. c #447A63",
"l. c #497B65",
"z. c #56746F",
"x. c #4E8453",
"c. c #4E805A",
/* pixels */
"D D D ! D j ; X X O $ @ $ 6 ; r r i r w w , , , w w 9 9 ; + 2 2 3 w q q 5 5 8 8 < < M D D V r b b H ",
"/ R V D M D m C < X     @ ; 8 V D D , ; , O , w w 9 w r , @ @ X O ; 6 6 2 9 6 6 6 < B P D 8 8 q H  .",
" .H b q m M W 5.! r O O 6 V V D D D K w , , , r y r < 1 < y 9 r 1 w 6 2 2 6 6 6 6 9 r q 9 6 9 q q b ",
"H V i 8 r m F W =.=.^ D E E D ^ ^ ^ f.>.e w 1 r y r k 1 k k r M D 8 q r 6 , - 6 6 9 5 9 q q  .@. .q ",
"K L L w , , r t R %.%.O.E R ] k.&.g.l.h.W M r t t 1 m j k M F M D D D r ; 3 $ ; $ 5 2 5  .} @.@.L V ",
"O.L K r r 8 r r V R R E $.] q.k.q.w.q.9.~ ~ M D M m T E k D E R D D D r 6 $ $ - # 2 2 6 0 9 i K K ..",
"r r i V r r 8 8 Y b Y R ] &.] q.q.q.9.9.' D T T v : v b W L O.R T D D D i < r r # # 2 2 # # - 6 r i ",
"6 6 $ w 6 6 8 V D b V T R V ] ' 8.~ 5.' ] ] ~ T v b 8 8 H L L T D D W C r < r < 6 # @ + # 2 6 2 6 6 ",
"2 $ 3 2 2 9 6 8 w y V D D D T T B D D D M E E v v v 8 7 8 v D R X.D D m ; ; ; : : Z D 8 H q $ $ ; 2 ",
"3 w y y 6 6 6 r 6 , , < < M D ~ u.C < r j v Y n U n U b - - v E R E T T i ; ; ; r D E %.&.O.p w 4 @ ",
"4.C i r 6 9 $ 6 6 ; , & ; r D +.g.^ V $.Y D n X.E n E E D v X.X.O.=.] T D < M F < 1 W R Y Y f.,.:.:.",
"2.W t y y 6 2 6 r , , ; $ 2 r o.%.R Y $.$.%.n _ n b n n E U U $.g.z.z.9.( ) N l k j D ^ T T ) 6.6.M ",
"f k M t y 9 w i r w $ $ 5 # w r b r q H $.-.n n v v v D D 8 6 V 7.q.c.j.T T ( ) ) l C T < M l x <.<.",
", t t e w 6 9 q i 6 6 6 2 @ # $ 6 ; 8 9 8 R $.N : v m V 8 ; 6 ; k c 6.c N B ] ) l M j j ; > j l > 1 ",
"w y w 6 6 5 6 9 2 2 2 9 6 $ $ $ $ O $ $ ; ; 8 : < V T N D T ] N l l h j j l l < > , ; ; ; < w 2 O , ",
"w 8 8 $     + + # r i 8 8 8 8 ; ; X O X X $ ; ; 8 j T D T ) ) z j k , , ; ; , > ; ; % X X $ O $ 3 ; ",
"0 7 0 - o & % o - b T N m D s = < : ; : ; 8 8 j j j h l l ) &.D > < ; O O ; r m r 8 w X @ , , , 8 7 ",
"0 0 7 7 N l l l s v v m l l g g l N D V : 8 m l g f h g j z W D V D : ; O X < D Z r u e u.B 2.W T b ",
"8 6 8 v v l j l d d s s a d g g ) $.$.D N D ( ( j g z z j s N m D N j i w r D T E R W ! ! B M B T m ",
"N l s s l l j j : : s s a d g l T E T N N ! T / N ( _ l d N ( N M D t y p r W ] ] ] $.Y N l M < k k ",
"l l l = > < : < ,.p r : > d d j v m Y T N ! / j.T l N l d j N ^ W D C r Z l N ) ) ) ( l l l N k l l ",
"j l l < < ; ; ,.t.:.; : < d a d s * s j > m N ! N j = > s m v R Y D m W M l l l l c l j s v r m j l ",
"< j m 8 r ; O O O ; X > < f g g g d = % o * = * ; % & > : N E $.=.^ +.p.w.l l c c x g : s : v 8 < < ",
"8 < < : ; O X O O ; w < > d j g g d = % % % % O % % 8 m m M =.-.;.;.;.;.=.W c c x x x l D : : < 8 < ",
"r s s - . . O $ 8 D O.T N a j d k f = & & & & O % = R ( $.] ] ] ] ] $.-.&.%.] l g f f g N : : : 8 < ",
"v s s : O % ; : D E _ R N j d a g z l j k > d > ; : T N j N l ) h l z B ] =.=.] l g a d j s m v v v ",
"V : : s v b N %.$.=.$.Y b v d d g d d d d d z k < > a * * a a g d g h 6.c z c l l g g j j D v : v M ",
"D N v v D D _ %.-.-.$.=.-._ ( l j k = j k f z z z l a a s s a a f f x z c c l d l j d < k m m m m D ",
"T D V R b v Y _ $.$.$.=.-.-.-.-.=._ T m j g l l l f d a * a a d g l l l z h d d a = & & ; : m m V T ",
"K L ..} D r v v v v T $.-.-.-.-.-.$.Y v s s j d d d a = = a j a : r m g h f * & % o # - - 6 r 6 8 V ",
"6 K i 9 r i r < & : v Y $.$.$.$.%.n v : * * s a * d a * & = = = : & = = > = & o o   o - i K P Z i 6 ",
"X ; r i p | b : & & : v b $.$.$.n v s 7 : * s = * * & : & & : : : & = ; & & : ; o O ; i ..i : y t.w ",
"K i V D ..K r r ; : : v E E E $.n 7 : 7 7 v s a * & ; = & ; s r < : % ; ; ; ; $ X O 6 y i H V ..y.} ",
"V K V V i 6 6 w e 3.: v b V n E v v v 0 7 s : = & % ; ; O ; & , 6 : ; ; $ ; w w O @ $ i K H i V n Z ",
"8 8 8 8 6 # $ 6 p t > 8 v D N n v b q 7 s * ; * & $ O $ $ $ ; O ; 3 $ 2 6 6 y y p i i q i b v D b 8 ",
"8 8 - - $ 2 - $ - ; ; = = s v v v s 8 s s s : : & $ & % r 6 ; $ 2 6 6 w ; 6 6 q i y 9 6 q v 8 8 8 8 ",
"8 ; ; - # @ # # # $ $ % ; & : j : : v v v s * - : : < v m m 6 9 9 r 6 : r : 8 r y 6 ; 7 8 v 7 : : 8 ",
": ; $ # 2 2 # ; ; w , ; p w & - # - ; & s : - - s s j L C m t i D r v r v F k m 8 8 ; 8 v 8 : - 7 6 ",
"5 2 } r.3 5 # ; ; , 6.2.s.:.$ . + o # - % % o # * 7 s u.4.m < t m W i < : s s r y 9 9 : 7 6 5 6 6 # ",
"5 6 2 i 6 v v : ; j <.7.x.3.; : j - - + o - + + - 7 s ; ; ; - - & M d.r ; : 7 6 9 8 j : : 6 6 - $ + ",
"; 0 0 b b Y N 8 = d d l ) l D l c j l : ; & & o o # # + + # . # - $ ; 5 5 # 5 2 2 w r 8 r 6 # # + . ",
"8 v b n b b b v : s : 7 s l ) c c l l l l j = : - ; # o + + . $ 5 5 # 5 5 2 5 # 2 q q } ..y # . + # ",
"6 0 9 5 6 5 5 5 8 N N l g f j N v s j d s > j j j j > = 8 u # . # 6 + # 5 2 6 5 6 q i } ..i i 6 6 5 ",
"6 6 5 6 5 - # : l l l g d d * : ; = = d d j k j k k < > < 1 O $ ; r 6 5 6 6 5 5 8 9 i 9 i q 6 6 6 5 ",
"5 6 6 : s : : l l g d d a = = = * > = a a k k k k k < 1 , , 1 t r r r r 9 6 6 9 y r 6 y y W r 9 6 2 ",
"8 9 - ; j s s j j l d d a d d a = d d a a > > 1 < 1 1 , > , k k < r i r 9 r r i i i r 3.4.3.t r r r ",
"F = s v j s s j j 2.M k k > > > d a d > > > 1 1 > > > , , > k < > < < j 1 t M M T r r i r M j C M D ",
"m s : s s j = d d k r r r M r m < < > , & > , , , , 1 > > k < < > ; < < r r M K Y 8 : 6 < r > 1 B N ",
"> = = : ; : : ; ; , r ; r r r r r , r < , , $ , ; ; w < < < i i u q i r r 6 r v 8 : : : < m k : k j ",
": j j D v : : O X X $ ; w , w , $ $ , , , , , , , 9 9 6 w 6 } } i 0 q i 9 9 q r > j N B D V 8 : : : "
};
