/* XPM */
static char *result[] = {
/* columns rows colors chars-per-pixel */
"50 50 175 2 ",
"   c #271E1B",
".  c #3C231B",
"X  c #32231D",
"o  c #1D2223",
"O  c #1F282A",
"+  c #212728",
"@  c #252C2C",
"#  c #292E2E",
"$  c #292725",
"%  c #352621",
"&  c #3C2A22",
"*  c #3A2F29",
"=  c #2A302F",
"-  c #38312C",
";  c #273132",
":  c #2C3434",
">  c #2F3939",
",  c #3C3631",
"<  c #323837",
"1  c #343D3B",
"2  c #383E3C",
"3  c #363835",
"4  c #421F13",
"5  c #40271D",
"6  c #41291F",
"7  c #4C2B1D",
"8  c #4A2517",
"9  c #552C1C",
"0  c #5D2E1B",
"q  c #59321E",
"w  c #442C22",
"e  c #492D24",
"r  c #4A3126",
"t  c #4A342C",
"y  c #4D382E",
"u  c #553424",
"i  c #5B3623",
"p  c #54392C",
"a  c #5C3B2B",
"s  c #5E3923",
"d  c #4E3730",
"f  c #443A34",
"g  c #463E38",
"h  c #4E3D38",
"j  c #583F38",
"k  c #503C32",
"l  c #633523",
"z  c #633B26",
"x  c #6D3C27",
"c  c #643E28",
"v  c #6D3D28",
"b  c #673F30",
"n  c #36403F",
"m  c #39413F",
"M  c #43423D",
"N  c #5D4036",
"B  c #55433C",
"V  c #5C463F",
"C  c #67412E",
"Z  c #6C452E",
"A  c #6D482F",
"S  c #74432D",
"D  c #7A472F",
"F  c #624433",
"G  c #6E4531",
"H  c #664837",
"J  c #6F4932",
"K  c #66463A",
"L  c #6C4B3E",
"P  c #784731",
"I  c #724B34",
"U  c #7A4D35",
"Y  c #784F38",
"T  c #704432",
"R  c #7A5037",
"E  c #7C523A",
"W  c #323D40",
"Q  c #344143",
"!  c #3B4442",
"~  c #3E4947",
"^  c #3D4A4A",
"/  c #414642",
"(  c #424946",
")  c #434E4B",
"_  c #4A4D4A",
"`  c #574842",
"'  c #524B4A",
"]  c #564743",
"[  c #45514E",
"{  c #465453",
"}  c #495654",
"|  c #4C5955",
" . c #4A575A",
".. c #4D5C5B",
"X. c #535153",
"o. c #5D5556",
"O. c #515E5B",
"+. c #5A595D",
"@. c #634C44",
"#. c #6E4E40",
"$. c #665149",
"%. c #695248",
"&. c #725446",
"*. c #765748",
"=. c #645D5D",
"-. c #725F57",
";. c #53625D",
":. c #58665F",
">. c #6B615E",
",. c #7A6155",
"<. c #75625A",
"1. c #5B5D63",
"2. c #645F61",
"3. c #556462",
"4. c #596664",
"5. c #576864",
"6. c #5A6A66",
"7. c #5D6D69",
"8. c #5F706A",
"9. c #6C6666",
"0. c #64666C",
"q. c #6C6769",
"w. c #656A6E",
"e. c #6D686A",
"r. c #62736C",
"t. c #68766E",
"y. c #68786F",
"u. c #696B71",
"i. c #667670",
"p. c #677871",
"a. c #6B7B73",
"s. c #6E7F78",
"d. c #707F77",
"f. c #824F37",
"g. c #84563D",
"h. c #8A573D",
"j. c #86593F",
"k. c #895A3F",
"l. c #905A3F",
"z. c #805740",
"x. c #865A41",
"c. c #895B41",
"v. c #845E4B",
"b. c #8A5E48",
"n. c #925D41",
"m. c #8C624C",
"M. c #956146",
"N. c #996245",
"B. c #92644C",
"V. c #996448",
"C. c #9E694C",
"Z. c #9D6D53",
"A. c #A46D4F",
"S. c #A56E50",
"D. c #6F8077",
"F. c #73847A",
"G. c #77887D",
"H. c #79897E",
"J. c #7B8C82",
"K. c #819285",
"L. c #859689",
"P. c #87988A",
"I. c #8A9C8E",
"U. c #8E9F90",
"Y. c #8FA092",
"T. c #93A494",
"R. c #97A897",
"E. c #9AAB9B",
"W. c #96A69A",
"Q. c #9FB09E",
"!. c #A1B29F",
"~. c #9FB0A0",
"^. c #A2B2A2",
"/. c #ACBCAB",
"(. c None",
/* pixels */
"(.(.(.(.(.(.(.(.(.(.(.(.(.(.(.(.(.(.(.(.3.6.7.) Q 3.7.6.5.5.3.(.(.(.(.(.(.(.(.(.(.(.(.(.(.(.(.(.(.(.",
"(.(.(.(.(.(.(.(.(.(.(.(.(.(.(.(.5.7.r.F.t.K.K.6.Q ) 3.8.a.L.K.J.6. .(.(.(.(.(.(.(.(.(.(.(.(.(.(.(.(.",
"(.(.(.(.(.(.(.(.(.(.(.(.(.6.r.8.;.7.K.R.K.E.!.P.^ Q ^ ^ ;.J.R.W.O.6.6.6.3.(.(.(.(.(.(.(.(.(.(.(.(.(.",
"(.(.(.(.(.(.(.(.(.(.(.6.8.r.P.E.7.;.J.T.T.Q.Q.T. .^ 3.D.J.J.s.....8.p.H.p.^ 3.(.(.(.(.(.(.(.(.(.(.(.",
"(.(.(.(.(.(.(.(.(.6.8.8.r.a.E.!.I.| :.r.F.a.r.r.: ; ) 6.a.G.t.) :.a.T.!.F.7.L.H.i.(.(.(.(.(.(.(.(.(.",
"(.(.(.(.(.(.(.(. .;.8.8.6.F.R.L.F.~ @ < m g g f   % * g / ( # # n ;.J.U.O.| F.T.E.a.(.(.(.(.(.(.(.(.",
"(.(.(.(.(.(.3.r.P.a...5.6.O.:.} _ f w p C I I G q Y Y I T F u e - ! O.[ < ..r.r.7.3.6.3.(.(.(.(.(.(.",
"(.(.(.(.(.{ ..;.r.P.G.~ < = , d p s R E E E E Y u R E E E E E E v 7 k $ ; { r.7...i.F.i.3.(.(.(.(.(.",
"(.(.(.(.3.6.6.a.a.O.[ :   w F Y I z E E g.x.c.g.z c.c.c.c.g.E E G s Y C t M < : 6.T.!.T.D.3.(.(.(.(.",
"(.(.(.(.;.6.8.J.H.;.( * a E E E I G M.V.C.A.S.V.S A.A.A.A.C.V.M.U s E E Y c X Q | a.E./.J.{ (.(.(.(.",
"(.(.(.5.5.3.;.) 1 2 w J E E g.b.n.f.A.A.A.A.A.V.S A.A.A.S.A.S.S.n.S M.g.E g.C X ( | :.r.6.F.D.(.(.(.",
"(.(. .7.r.a.r.m + . 7 R E c.C.A.M.f.A.A.S.A.A.V.S A.A.A.A.A.S.S.k.D A.C.b.E I 4 w 3 : | T.!.T.r.(.(.",
"(.(.F.d.i...m m r C 9 g.M.S.A.A.M.f.S.S.A.A.A.V.S A.A.A.A.S.A.A.n.D A.A.A.V.Y 8 C w / } 8.D.r.5.(.(.",
"(.r.R.^.T.O.Q % I A u N.A.S.A.S.N.f.A.A.S.A.A.V.S A.A.A.A.A.A.A.l.D A.A.A.S.c.8 I I & : > ;.8.8.3.(.",
"(.{ 7.d.w.~ 3 a E I x A.A.S.A.A.N.f.A.A.A.A.A.V.S C.A.S.A.S.S.A.n.D A.A.A.A.M.0 Y E a , ~ | 7.3...(.",
"(.r.K.J.[ 1 & R g.k.x A.A.A.A.A.M.U A.S.A.S.A.N.S A.A.A.A.A.A.A.n.D A.A.A.A.n.0 k.g.Y & @ ; } 5.6.(.",
"3.D./.E.;./ a E B.n.x C.S.A.A.A.N.f.A.A.A.A.A.V.S A.A.A.A.A.A.A.l.D A.A.A.A.M.0 n.M.E a - ! :.i.5. .",
"5.a.R.J.} , G x.A.n.x A.A.A.A.S.n.g.A.A.A.A.A.V.S C.A.A.S.A.A.S.n.D A.A.S.A.M.0 n.A.k.G , [ | O.....",
"3.7.8...< . Y M.A.n.v C.A.A.A.A.n.f.A.A.A.A.A.V.S C.A.S.A.A.A.A.l.D A.A.A.A.N.0 M.S.M.Y & : ! a.D.7.",
"7.F.;.[ 1 w E C.S.n.v C.S.A.A.S.N.f.S.A.A.A.A.V.S A.A.A.A.S.A.S.n.D A.A.A.A.M.0 n.A.C.E w 1 [ F.a. .",
"i.~.J.{ m p c.M.M.c.U M.M.M.M.M.n.g.M.M.M.M.M.M.R M.M.M.V.M.M.M.l.g.m.B.B.m.m.I b.B.m.x.y @ 1 ;.5.3.",
"5.P.K.1 @ a c.x.j.x.c.k.j.j.x.j.x.c.j.x.j.x.j.k.k.j.j.k.j.j.k.z.,.9.q.=.9.9.9.e.9.9.=.q.' : m 8.8.6.",
"{ 3.i.{ : F c.c.c.x.c.j.x.c.c.c.c.c.c.x.x.x.c.x.x.k.k.k.k.k.k.*.=.0.u.1.4.0.w.w.w.0.1.0.X.Q ( 7.8.5.",
"{ 6.P.F.[ H j.g.g.j.j.g.j.g.g.j.g.g.g.j.j.g.j.g.j.j.g.k.g.j.j.h.E %.$.$.$.$.%.%.$.$.$.$.B [ :.H.i.5.",
"3.r.a.6.Q r Z Z G C z Z Z S A Z Z Z A Z Z Z Z Z C A Z Z Z Z Z A Z C Z Z Z Z Z q Z Z Z C r [ :.T.D.5.",
"..5.3.^ # 6 j.C.C.c.x C.C.C.C.C.l.R C.C.C.C.C.M.Z B.C.V.C.C.C.A.k.S C.C.V.A.l.0 k.C.C.j.6 # n :.5...",
"3.a.J.^ @ 6 j.A.S.n.v Z.Z.S.A.A.N.f.S.A.A.S.A.V.S A.A.A.A.A.A.A.n.D A.A.A.S.N.0 M.A.A.k.6 < _ y.i.5.",
"6.U.^...m r j.A.Z.&.' o.o.%.B.S.N.f.A.A.A.A.A.V.S A.A.A.A.A.A.A.l.D S.A.A.A.N.0 N.A.A.k.e ( ;.U.D.5.",
"5.J.J.^ ! r k.C.@.t e v C H ` m.N.f.A.A.A.A.A.N.S A.A.A.A.A.A.A.n.D A.A.A.A.N.0 n.A.A.k.r ) ;.K.p.5.",
"5.r.5.> < e k.m.h D x A.A.A.*.@.n.f.A.A.A.S.A.C.S A.S.A.A.A.A.A.n.D S.A.A.A.l.0 n.A.A.k.r [ 6.T.F.5.",
"5.8.[ ; O w c.m.B h.x A.A.A.*.N l.f.A.A.A.A.A.V.S A.S.A.A.S.S.A.l.D S.A.A.S.N.0 n.S.A.k.w n [ 3.{ ^ ",
"^ ^ Q n o . x.C.@.L v A.A.B.V S N.R A.A.A.A.A.N.S C.A.A.A.A.A.A.l.D A.A.A.A.M.0 M.S.A.k.. o O W  . .",
" .5.F.y.~ w k.A.V.K t L L F G n.N.f.A.A.A.A.A.V.S A.A.A.A.A.A.A.n.D A.A.A.A.N.0 n.A.A.c.6 @ + { r.5.",
"5.D.R.G.) r k.A.S.c.l g.g.l.A.S.M.f.A.A.A.A.A.N.S A.A.A.S.A.A.S.l.D A.A.A.A.M.0 n.S.A.c.r 2 ; r.p.5.",
"5.a.P.y.) r j.A.S.n.x A.A.A.A.A.M.f.A.A.A.A.A.C.S C.A.A.A.A.A.A.n.D A.S.A.A.n.0 n.S.S.k.r ~ m I.J.7.",
"5.a.T.a.~ w k.S.S.M.x A.A.A.A.A.M.f.A.A.A.A.A.V.S A.A.A.A.A.A.A.l.D A.A.A.A.M.0 n.S.S.k.e 1 ( ^.I.5.",
"3.6.r.} = r c.N.V.c.P M.V.V.V.V.n.g.V.V.B.V.M.M.U M.V.M.V.V.B.V.n.f.V.V.V.V.b.S k.V.V.k.r + : 6.6.;.",
"..8.a.;.> C c.k.c.j.c.x.c.c.x.h.j.c.j.j.k.j.x.j.c.k.j.k.j.x.j.x.v.,.<.<.<.<.<.<.<.<.<.<.` : Q 6.8.;.",
"6.D.E.H.[ H k.j.x.c.h.x.x.x.x.x.c.x.j.x.k.j.k.k.x.x.j.x.x.x.k.x.>.w.w.1.1.w.u.w.u.w.+.w.X./ O.F.8.3.",
"6.8.D.r.[ H k.k.c.c.x.c.c.x.h.c.k.x.c.c.c.k.k.k.k.c.c.x.c.k.x.j.&.=.=.=.=.=.>.=.=.=.+.>.' _ ;.G.;.^ ",
"6.8.8.| < N E R R R U R E R R R R R R R R R R R R R U E Y Y Y Y R I I I J I J Y I J I I p @ : a.i.1.",
"6.8.r.[ = 6 A U U I s U R R R R I Z R R R U R I c U U U U U U U J C R R R R I q I E R A w = > K.W.7.",
"..3.:.~ @ 6 k.A.S.n.v A.A.A.S.S.M.f.A.A.A.A.A.V.S A.A.A.S.S.S.S.l.D A.A.A.A.N.0 n.A.A.k.e ~ ! p.E.p.",
"3.G.L.r.n 6 j.A.A.n.x A.A.S.A.A.M.f.S.A.A.A.A.C.S A.S.A.A.A.A.A.l.D A.A.A.A.n.0 M.A.A.k.w ; > ..7.6.",
"5.5.5.[ < w k.A.A.n.x C.A.A.A.A.M.f.A.A.A.A.A.V.S A.A.A.A.A.S.A.l.D A.A.A.A.M.0 n.A.A.c.w 2 } F.r.6.",
" .;.r.r.) r k.A.A.n.x A.S.A.S.A.N.f.A.A.A.A.A.V.S C.A.A.A.A.A.A.M.D A.A.A.A.M.0 n.A.A.c.r ) 6.!.G.6.",
"5.8.r.| : 6 k.A.S.n.x C.A.A.A.A.M.f.A.A.A.A.A.V.S C.A.A.A.S.S.S.l.D A.A.A.A.M.0 M.A.A.c.e _ 6.^.J.3.",
"..;.;.[ # w c.A.S.n.v A.A.S.A.A.N.f.S.A.A.A.A.V.S A.A.A.A.S.S.S.l.D A.A.A.A.N.0 n.A.A.c.6 : ! r.3.{ ",
"3.7.8.3.n e x.A.S.n.v A.A.A.S.S.N.f.S.S.S.S.S.V.S S.S.S.S.S.S.S.M.D A.A.A.A.M.0 n.A.A.c.e ( ;.T.T.a.",
"..5.i.3.2 . J M.M.g.l M.M.M.M.M.c.P M.M.n.V.V.c.v n.n.V.V.n.V.M.f.S M.V.V.M.h.9 g.M.V.I . ! | K.L.a."
};
