/* XPM */
static char *_3afccbe34994495ff046dc39989ae54cQrLSUOuZiNsMyPP[] = {
/* columns rows colors chars-per-pixel */
"50 50 232 2 ",
"   c None",
".  c #5C331B",
"X  c #57311A",
"o  c #542E16",
"O  c #6C3415",
"+  c #67371B",
"@  c #733B1C",
"#  c #7A3C1A",
"$  c #763917",
"%  c #6B3D24",
"&  c #663C26",
"*  c #7B3E20",
"=  c #7C431E",
"-  c #71411A",
";  c #7F541F",
":  c #6B4326",
">  c #7A4825",
",  c #823F1B",
"<  c #85431D",
"1  c #8B461E",
"2  c #8C491F",
"3  c #86491F",
"4  c #91491F",
"5  c #8D4A21",
"6  c #864B24",
"7  c #934C21",
"8  c #9A4E22",
"9  c #904720",
"0  c #895626",
"q  c #955322",
"w  c #9B5524",
"e  c #955924",
"r  c #9C5A25",
"t  c #955729",
"y  c #A35425",
"u  c #A35B26",
"i  c #AA5C26",
"p  c #AC5F29",
"a  c #B15D27",
"s  c #9D6127",
"d  c #9A612D",
"f  c #9D7C2A",
"g  c #986635",
"h  c #977B36",
"j  c #A46227",
"k  c #AB6326",
"l  c #AD6A27",
"z  c #A66429",
"x  c #AA6429",
"c  c #A66A2A",
"v  c #AD6B2A",
"b  c #B56127",
"n  c #B26228",
"m  c #BC6528",
"M  c #B36B2A",
"N  c #BC6A2A",
"B  c #BD6727",
"V  c #A5742A",
"C  c #AC732B",
"Z  c #AC7B2C",
"A  c #A7782B",
"S  c #B57427",
"D  c #B3742B",
"F  c #BB732B",
"G  c #B47B2C",
"H  c #BB7C2C",
"J  c #B87A26",
"K  c #AD7B31",
"L  c #A77636",
"P  c #B47C34",
"I  c #B87B33",
"U  c #C67B2D",
"Y  c #C16828",
"T  c #AA7B42",
"R  c #AC862C",
"E  c #B2822D",
"W  c #BD832B",
"Q  c #B38B2D",
"!  c #B88D2F",
"~  c #BC8226",
"^  c #BC922E",
"/  c #B89B2C",
"(  c #A5893B",
")  c #AB8637",
"_  c #B48333",
"`  c #BA8335",
"'  c #BA8C34",
"]  c #B4843B",
"[  c #BD843B",
"{  c #BA8D3B",
"}  c #B38B37",
"|  c #AE913A",
" . c #BC9332",
".. c #BC9A31",
"X. c #B3923C",
"o. c #BC943B",
"O. c #B89B3D",
"+. c #AD9128",
"@. c #BCA138",
"#. c #D6A51F",
"$. c #E3B91C",
"%. c #C1842C",
"&. c #C48B2B",
"*. c #CE8C2D",
"=. c #C48926",
"-. c #CF9B23",
";. c #CC962B",
":. c #CC992E",
">. c #C5962A",
",. c #D19E2D",
"<. c #C48836",
"1. c #C29C32",
"2. c #CA9A34",
"3. c #C1933A",
"4. c #C69636",
"5. c #D39A33",
"6. c #D28F2E",
"7. c #C5A42D",
"8. c #CBAA2A",
"9. c #C8A62B",
"0. c #DBAE25",
"q. c #D3A32B",
"w. c #D3AD2A",
"e. c #D6A826",
"r. c #CFB428",
"t. c #D6BB25",
"y. c #DCBC25",
"u. c #D5B42A",
"i. c #DBBC2A",
"p. c #D6B62A",
"a. c #C4A434",
"s. c #CBA332",
"d. c #C5AA32",
"f. c #CAA638",
"g. c #D2A33B",
"h. c #D7A836",
"j. c #D8B735",
"k. c #CAB23E",
"l. c #E2BC22",
"z. c #E2BA26",
"x. c #E3B936",
"c. c #F4DC0C",
"v. c #F4DA0A",
"b. c #E4C21D",
"n. c #E9C71D",
"m. c #E5CD1D",
"M. c #EACD1D",
"N. c #EAC816",
"B. c #ECD31B",
"V. c #EDD91A",
"C. c #EBD517",
"Z. c #F3DC14",
"A. c #F1DD1C",
"S. c #F1D512",
"D. c #F7E20E",
"F. c #F5E212",
"G. c #DDC323",
"H. c #DBC128",
"J. c #D7C43C",
"K. c #E3CA22",
"L. c #E5C727",
"P. c #EBD422",
"I. c #EED32C",
"U. c #E8D427",
"Y. c #F2DE25",
"T. c #F4DB2B",
"R. c #E9C936",
"E. c #EDD736",
"W. c #ECD933",
"Q. c #F3DC31",
"!. c #F0D036",
"~. c #F4E323",
"^. c #F7E729",
"/. c #F4E436",
"(. c #F6E43A",
"). c #F9EA38",
"_. c #AE8843",
"`. c #AD9442",
"'. c #B89744",
"]. c #BF8D45",
"[. c #C6984B",
"{. c #C2A744",
"}. c #D8AB43",
"|. c #D9BF47",
" X c #D2AD5A",
".X c #CAB04F",
"XX c #D5B56A",
"oX c #D9BA76",
"OX c #DECC45",
"+X c #EACA44",
"@X c #E8CA59",
"#X c #ECD558",
"$X c #EDD142",
"%X c #F4E34C",
"&X c #F9EB44",
"*X c #FAEC5C",
"=X c #F7EA54",
"-X c #DEC173",
";X c #F1DB66",
":X c #ECD278",
">X c #EED670",
",X c #F8E96A",
"<X c #FBF069",
"1X c #F5E678",
"2X c #FCF17B",
"3X c #E4CB81",
"4X c #E9D489",
"5X c #EAD69A",
"6X c #ECDB99",
"7X c #F5E78B",
"8X c #FCF388",
"9X c #F6EB99",
"0X c #FAF195",
"qX c #EFE09A",
"wX c #EADBA0",
"eX c #F2E5A2",
"rX c #F5EAA5",
"tX c #FBF4AC",
"yX c #F7EDB7",
"uX c #FBF4B3",
"iX c #FCF5BC",
"pX c #F7F0BE",
"aX c #F6EDC6",
"sX c #FCF7CD",
"dX c #FBF6C8",
"fX c #FAF5D3",
"gX c #FEF9D4",
"hX c #FBF8DC",
"jX c #FCFAE5",
"kX c #FCFBEB",
"lX c #FDF7E4",
"zX c #FCFBF2",
/* pixels */
"                                        o.3.o.o.3.3.3.3.4.4.                                        ",
"                                  4.2.2.:.:.,.5.g.g.g.h.g.g.2.1.3.                                  ",
"                            O.2.q.e.0.x.R.#X1X8X0XuXpXdXpXyXqX>X|.h.s.'.                            ",
"                          s.0.z.L.I.(.*X,X,X>X>X:X:X4XeXyXfXjXkXgXrX#Xj.f.                          ",
"                      ..0.b.M.Y.).%X+X}.<.H A l v l M S ` [.XX5XaXkXkXyX;Xj.f.                      ",
"                    ..l.M.Z.^.E.h.H v v W =.-.#.#.q.;.W D v l M [ oXpXkXjX9X$Xj.                    ",
"                X.1.y.B.F.Q.h.F v H #.N.S.c.D.v.c.M.L.8.^ Z Z D D v I oXaXzXdX%XH.{.                ",
"              | 7.p.B./.R.U z ~ $.Z.D.D.c.C.G.H.8./ / 8.t.t.9.Q A G D k [.6XkXgX*XL..X              ",
"              7.y.V.^.h.v l #.S.S.P.m.L.p.s.1.{ L L }  . .a.u.L.w.R V H v C oXlXgX*XK..X            ",
"            7.G.P.Q.6.p J $.K.8.7.s...}                     } >.w.w.! V H D c XXfXsX=XU.            ",
"          a.L.P.Q.5.u G l.0.^  .{ P                             o. .^ ^ A W D z XXfXuX).U.          ",
"        @.y.B./.6.i S q.>.E ' ]                                     { } ! G W M c XXdX8X~.OX        ",
"        u.B.T.h.p z *.W Z W T                                         { _ E Z %.j c 3XiX*XY.        ",
"      a.K.V.x.M u W W Z L T                                               Z c G G w ] 9X8X).OX      ",
"      t.V.I.U y z %.S d g                                                 P G G G j r  X0X=XW..X    ",
"    d.m.A.h.a r C &.v g                                                     P &.G j w C >X<X).OX    ",
"    r.V.L.N u e H ! t                                                         W %.r j q g.,X&XJ.    ",
"  +.G.P.6.a r e H d >                                                         d G j s 4 S #X&X/.`.  ",
"  +.i.s.N i e r s >                                                             r j j r q j.(.^.O.  ",
"  f Z M n i q e 3 &                                                             0 t z k 7 ! z.I.@.  ",
"  - @ b b i 7 5 =                                                                 q u n 5 C q.*.c   ",
"@ O # B i k 5 3 -                                                                 w w r 9 j &.F i & ",
"@ O 2 Y i j < = .                                                                 6 w 7 7 u H M a : ",
"# $ 4 m i l 2 = o                                                                 # , 9 8 y D z n % ",
"* # 8 a i M w 9 X                                                                 # $ 1 y i c u y % ",
"* # 8 y i G M 8 .                                                                 @ $ , a i x 7 7 % ",
"> # 8 8 j W U i .                                                                 @ O , b a j 1 , . ",
"6 1 8 9 j ;.*.a &                                                                 O O # Y k r < # . ",
"t w 4 4 r s.h.,.;                                                                 ; 0 < Y i y < # & ",
"  y i w 8 >.Q.^.d.                                                                / 8.l B i w 3 >   ",
"  t k i 5 W %X&XW.h                                                             f t.K.*.b u 0 5 <   ",
"  t u M 5 c @X<X)..X                                                            / m.Y.6.a r 4 q >   ",
"  t e z r 8 |.8X&XE.'.                                                        ( r.S.Y.U i q w 0 :   ",
"    r e j 8 _ 7X2X^.J.                                                        ..K.Z.R.N y q c 6     ",
"    c c e r r -XuX*X~.{.                                                    | r.m.Y.h.i q j D >     ",
"      H j j q ` eXiX).U.'.                                                ( 7.G.C.E.N w s %.c       ",
"      ` H c k w  XsXtX/.H.'.                                            ( ..y.B.Q.5.u j H &.g       ",
"        &.H D u c 3XjXuX(.i.`.                                        ( ^ u.K.T.x.x u H W C         ",
"        [ G H F u P wXzXuX%Xj.X.                                    ) ..u.G.Y.!.F u ~ W L g         ",
"          _ c E H u P 5XkXfX,XR.a._.                            } ..u.n.B.~.!.H i %.&.D g           ",
"            K A W U k P 4XjXjXrX#Xp.1.{                     X.>.e.z.n.Z.~.!.H u %.;.G L             ",
"              K E G H k v oXdXzXhX9X@Xj.s.>. .o.o.o.o.' >.;.q.z.l.P.~.(.x.M z -.0.E K               ",
"                E Q Z H M z [.5XfXzXjXyX4X@X}.g.2.;.;.,.h.j.R.Q.).).!.4.p S 0.z.' _ _.              ",
"                  } ! Z G H v c [.4XaXjXkXjXgXyXeX7X7X1X,X,X*X%X+X4.v k ;.n.i.! '                   ",
"                    ' ..R A G D l l <. X3XqXyXyXuXtX9X1X;X@Xh.<.M M =.$.A.p. .{                     ",
"                      o. .7.Q A V S v l l D I [ <.].<.I D l M H -.$.c.C.s. .].                      ",
"                          a.p.i.9.R Z Z G F G J J F J ~ ;.#.N.S.D.A.P.w.3.                          ",
"                              f.u.y.t.8.7.s.0.$.n.N.S.v.c.F.F.Z.M.i.f.                              ",
"                                  3.a.a.d.8.d.9.8.G.m.K.H.H.i.j.f.                                  ",
"                                          '.o._ R ) ..a.{.                                          "
};
