/* XPM */
static char *_f730dfa90764510b7783792b9c464551fuUEfg3og6EeeAb[] = {
/* columns rows colors chars-per-pixel */
"60 60 245 2 ",
"   c None",
".  c #3B0000",
"X  c #3F0E0F",
"o  c #060C2D",
"O  c #020D35",
"+  c #01113D",
"@  c #191C37",
"#  c #322D33",
"$  c #152D29",
"%  c #420101",
"&  c #480809",
"*  c #570404",
"=  c #4A1618",
"-  c #670202",
";  c #750101",
":  c #7A0404",
">  c #691B1D",
",  c #781816",
"<  c #531D21",
"1  c #562C2F",
"2  c #682628",
"3  c #703131",
"4  c #763311",
"5  c #1E4521",
"6  c #70452C",
"7  c #7C5320",
"8  c #021847",
"9  c #001D53",
"0  c #01245C",
"q  c #072758",
"w  c #0F2F5C",
"e  c #2F344E",
"r  c #032A65",
"t  c #032B6A",
"y  c #072A64",
"u  c #053369",
"i  c #14376A",
"p  c #022B78",
"a  c #043877",
"s  c #15346D",
"d  c #2B3C65",
"f  c #693F44",
"g  c #463C4D",
"h  c #094377",
"j  c #164774",
"k  c #344767",
"l  c #395078",
"z  c #3B4A57",
"x  c #504D53",
"c  c #66474C",
"v  c #705357",
"b  c #74635B",
"n  c #4F5669",
"m  c #705C64",
"M  c #596876",
"N  c #6C6A69",
"B  c #776669",
"V  c #76726C",
"C  c #676876",
"Z  c #787679",
"A  c #6D7574",
"S  c #870303",
"D  c #990405",
"F  c #871716",
"G  c #991313",
"H  c #80140C",
"J  c #A80808",
"K  c #B60A0A",
"L  c #A71514",
"P  c #B41111",
"I  c #922C2A",
"U  c #C60A0A",
"Y  c #C91919",
"T  c #D81A1A",
"R  c #D00809",
"E  c #E61D1D",
"W  c #DA2726",
"Q  c #CB2F2F",
"!  c #EA2929",
"~  c #F02D2B",
"^  c #8C5531",
"/  c #99633C",
"(  c #94752B",
")  c #A3693F",
"_  c #925054",
"`  c #90664A",
"'  c #A8764D",
"]  c #835D64",
"[  c #877777",
"{  c #8C736C",
"}  c #A3796A",
"|  c #AA4C4E",
" . c #DD6C6E",
".. c #79947C",
"X. c #B2825B",
"o. c #96887A",
"O. c #908173",
"+. c #B38F70",
"@. c #C69669",
"#. c #C99D73",
"$. c #D5A976",
"%. c #D4AA7A",
"&. c #D2A16F",
"*. c #9E8334",
"=. c #043884",
"-. c #033998",
";. c #0C3292",
":. c #0638AB",
">. c #053CB6",
",. c #06468A",
"<. c #044598",
"1. c #175897",
"2. c #105090",
"3. c #2D4D8E",
"4. c #2E6397",
"5. c #0447A9",
"6. c #184AA5",
"7. c #0443BC",
"8. c #0548B7",
"9. c #1054AE",
"0. c #2F5CAD",
"q. c #1265B3",
"w. c #2C6EB7",
"e. c #465C84",
"r. c #536D92",
"t. c #767A89",
"y. c #66728B",
"u. c #6F7EA6",
"i. c #526BA2",
"p. c #033FC4",
"a. c #0342C4",
"s. c #0244CC",
"d. c #034ACB",
"f. c #064AC4",
"g. c #0455C7",
"h. c #034BD1",
"j. c #0354D3",
"k. c #035CD4",
"l. c #0B58D7",
"z. c #1459CF",
"x. c #0363D5",
"c. c #056CDA",
"v. c #0868D9",
"b. c #1668DB",
"n. c #0676DC",
"m. c #1A77D7",
"M. c #0D6AC8",
"N. c #2B71D1",
"B. c #1477E3",
"V. c #2677E3",
"C. c #397BE3",
"Z. c #4579D9",
"A. c #8B7D87",
"S. c #7D8493",
"D. c #77848B",
"F. c #5282B2",
"G. c #7491B5",
"H. c #7CA882",
"J. c #1988DB",
"K. c #2D86D0",
"L. c #1189E3",
"P. c #2E93E5",
"I. c #35A7EA",
"U. c #488AD6",
"Y. c #4787E5",
"T. c #558CE6",
"R. c #5294E6",
"E. c #6497E8",
"W. c #55AAE9",
"Q. c #4AA5E8",
"!. c #79A6EC",
"~. c #73B7EE",
"^. c #689FD6",
"/. c #79C0EE",
"(. c #858689",
"). c #948984",
"_. c #9B958B",
"`. c #868996",
"'. c #978B96",
"]. c #89929D",
"[. c #989998",
"{. c #A69A96",
"}. c #AE9188",
"|. c #BBA289",
" X c #AAA49E",
".X c #B1A89F",
"XX c #8D94A3",
"oX c #9599A7",
"OX c #8695AE",
"+X c #9AA5A9",
"@X c #9BA7B7",
"#X c #99B1B8",
"$X c #A8A7A8",
"%X c #B4ABA7",
"&X c #B8B2AB",
"*X c #A6A9B7",
"=X c #AAB3BB",
"-X c #BBB9B4",
";X c #BCBDBC",
":X c #B8B6B5",
">X c #B4A9B6",
",X c #AC9BA5",
"<X c #D0B08E",
"1X c #E5BA85",
"2X c #C3BBB7",
"3X c #C8B3AD",
"4X c #DD979B",
"5X c #BEC1BF",
"6X c #9ECA9F",
"7X c #ECC593",
"8X c #C7C2BE",
"9X c #EED1AD",
"0X c #FFE3BD",
"qX c #92A8C7",
"wX c #ABB5C3",
"eX c #B4BAC7",
"rX c #ADBAD3",
"tX c #8CB4EF",
"yX c #98ABD7",
"uX c #D2BAC3",
"iX c #BAC4D6",
"pX c #B5C6CB",
"aX c #97C7F0",
"sX c #B2D3F0",
"dX c #CDCCCB",
"fX c #C6C5C4",
"gX c #D3CECB",
"hX c #D5D2CD",
"jX c #C5CBD7",
"kX c #CCD1DC",
"lX c #D9D7D7",
"zX c #E2DCD8",
"xX c #EFDCC1",
"cX c #F0E3D1",
"vX c #CCD5E3",
"bX c #D2DAE6",
"nX c #CBDDF3",
"mX c #DBE3EB",
"MX c #DBE7F5",
"NX c #E8E7E6",
"BX c #E5EBF4",
"VX c #ECF3FA",
"CX c #F4F7F8",
"ZX c #F1EEEC",
"AX c #D4E2D4",
/* pixels */
"                                                      sXsXaXaXaXaXsX                                                    ",
"                                      r.i.w.    MXMXnXaX!.E.R.R.U.R.W.~./.                                              ",
"                                    4.{ |.+Xw.K.E.aX!.U.V.m.b.x.x.v.c.n.P.Q.~.                                          ",
"                                  !.4.O.|.9X9XOXM.M.N.M.l.k.k.g.j.j.j.k.x.c.J.Q./.                                      ",
"                          ~.W.I.P.m.9.{ +.9X0X0XqX8.h.h.j.j.h.h.h.s.s.d.d.g.k.n.P.W.~.~.W.P.K.w.i.M n                   ",
"                      W.I.L.L.n.n.n.9.C <X3XeXyXU.C.C.V.b.l.j.h.s.s.a.a.f.f.g.M.c.L.P.P.U.G.[.}.X.c                     ",
"                  I.L.n.n.c.c.c.c.B.z.z.U.N.m.B.C.C.Z.T.Z.b.l.h.h.p.p.a.7.a.f.f.g.g.q.t.|.<X#.X.v k                     ",
"              I.L.n.n.v.v.v.k.v.c.b.v.b.b.B.J.C.Y.T.E.E.T.C.N.l.h.s.p.p.7.7.7.8.8.6.6.r.} X.} v 4.                      ",
"          P.L.c.g.g.8.8.8.g.k.v.c.b.V.V.V.b.N.V.Y.E.!.!.!.E.C.z.h.s.p.p.>.7.>.8.8.8.6.9.0.M l 1.K.W.                    ",
"        J.c.q.8.5.5.5.-.-.-.9.c.c.n.b.z.:.3.3.0.N.T.!.tXtXtXZ.z.h.s.s.p.a.>.7.7.7.8.5.9.M.N.q.N.K.J.W.                  ",
"      m.M.5.5.<.=.,.a a h u q.c.v.v.l.>.e.>XdXpX'.i.Z.E.E.T.C.b.h.s.s.s.a.a.f.p.3.l l i a w.C.w.M.q.J.W.                ",
"    q.5.2.,.h h h j         N.c.k.k.j.7.OXNXZXZXNX;Xu.z.b.l.b.l.s.s.s.>.>.f.6.n (.,X XC 0 6.N.0.<.<.q.K.                ",
"  w.1.                      n.x.k.h.g.g.@XNXVXCXCXNX+Xj h.l.l.h.p.s.p.:.:.2.C >X5X5X-XM y 6.0.;.h ,.<.q.                ",
"                          P.c.k.k.g.f.g.^.zXZXCXCXCXH.5 :.p.s.>.>.p.>.:.y z :XuXdXdX>Xd a 6.6.q u ,.h q.                ",
"                        I.n.v.k.g.8.8.8.w.iXmXZXCXCX..5 r.6.-.;.;.;.t 8 $ O.dXdXdX2XC t ;.6.i 0 u h ,.q.                ",
"                  I.I.P.n.v.j.h.g.8.5.9.].8XhXzXNXZXAX6XAXuXu.d e k x 5 V pXdXdX;Xt.y =.,.9.  w u h 2.                  ",
"      N.K.R.Q.Q.P.L.c.k.g.d.8.8.5.5.5.,.Z <X7X9X9XxXcXcXcXcX7Xg # O.o.o.&X&X%X{.B y p =.9.      j h 2.                  ",
"            8.9.8.8.8.>.:.5.<.<.,.=.,.=.u n { +.#.%.%.<X$.$.+.6 3 ' @.+.X.X.X.} m t p -.q.                              ",
"                    =.=.a a u u u h u h a h i n B ` b ^ / / ( / / ^ ) ) ( ' ` g q t =.1.                                ",
"                                1.2.2.2.        G.q.3.z 6 6 4 6 7 7 ^ 6 # 8 8 8 9 a ,.w.                                ",
"                                          xX9X|.u.N.b.OX<X#.X.` / / / ` 1 o + 8 r h 4.                                  ",
"                        CXCXVX      <X<X<X}.B 3.f.b.P.rXxX9X7X1X$.&.X.X.X.x + q h 1.                                    ",
"              ZXzX8X5XlXlXAXAXdX5X.Xo.{ e.i p :.7.z.N.^.9X9X7X7X1X$.$.@.+.{ w h                                         ",
"            NXNXhX&X{.{. X-XfXdXlXlXAXNXqXG.G.qXrXmXZXNXhX1X7X7X1X$.$.@.+.+.k                                           ",
"              gX3X&X&X.X.X%X&X5X5XdXlXNXZXCXCXZXNXNXzX8X%X{.1X1X$.$.&.#.#.+.|.                                          ",
"            zXhXhXNXzX3X.X%X:X5X;X;X:X;XwXwX@XoXoX*XF.4.3.3.}.$.&.&.#.$.<X+.o.+.|._.Z `.:XhX                            ",
"      ZXlX8X3X&X&X8XgXfX&X X$X&X%X:X@Xw.9.2.2.        6.-.-.3.{ X.@.@.<X    _.O.O.` b [.dXhX5X                          ",
"    ZXNX8X%X&Xo.{ [ o.o.o._._.        8.<.,.          2.=.=.;.s n N M r.    @XD.V V [.5XkXhXfX5XfX                      ",
"  NXNXlX3X2X8Xo.V { o._.{.            <.,.        1.j u p p p a y q a 1.      #X=X=X5X5X5X5X+X$X2XfXdXhXgX              ",
"    8X&X-X.X[ { O._.$X                              u p =.=.    8 8 p 1.          pXpXpX$X[.[. X$XpXdXAXlXgXdX          ",
"    zXzXhXo.V o._.                                w t p a         8 0 2.                  #X[.].[.oX;XdXlXmXNXNX        ",
"    ZXNXAX-X).                                    y t t s         + 9 a                       ].D.O.V Z [.fXjXfX5XfX    ",
"      ZXzX2X_.(.                                w t r q           O 8 u                     D.D.t.O.N A N (.[.[.$X:X-X  ",
"        -X&X[.[.$X                            w r t q             o 8 0 i                   y.A   N A N V D.+X$X  [.&X-X",
"                                              r t 0 w             O O 9 i                         N N Z (.[.[.    _.$X:X",
"                                            y t 0 q               O O 8 y                             (.(.).            ",
"                                          y r r q                 o O 8 y                                               ",
"                                        w r r 9 q               e o 8 9 y                                               ",
"                                      w r t 0 q           C n x @ O + 8 s y.                                            ",
"                                      r t 0 q           t.n # @ o O + 9 y y.=X                                          ",
"                                    y t r 9 q         S.`.S.n # o o O 8 k XXvXkX                                        ",
"                                  u t r 0 q         m S.S.oXoX].t.y.A.XXeXvXkXeX                                        ",
"                          mXjX+Xn t r 0 8 k       = X x (.XX@X@X*XwXwXeXeXeXoXt.                                        ",
"                        eXkXBXbXwX@XG.u.y.`.$XkX  & . . = 1 c m m m m m B `.oX*XoXS.`.                                  ",
"                        iXvXbXBXVXCXCXVXVXBXmXbXZ < . . . . . % & & 3 A.wXkXbXvX=XA.c > , 4                             ",
"                      wXeXiXvXMXVXVXVXVXBXmXvX  S.m X . % % % % & f XXwXeXjXkX3X| D S ; S D L                           ",
"                      ] B t.].*XeXkXkXvXvXiX>X  S.t.M = % % % & c XX@XwXwXeX}.I J J J D J K U U Y                       ",
"                    v ] B A.'.+X,X,X).m 3 1 = <     t.C c 1 & f `.XXoXoX>X] : : G L J J K K K U R E !                   ",
"                  ].(.`.oXwXvXBXCXVXBXjXA.> * *         Z C C t.S.].].XX] * * - - ; H G L P K U R E ~ ~                 ",
"            *.7 3 2 > > 2 I _ } >XkXMXBXBX,X2 * 2               u.S.`.(.f < * * * * - ; : S J P P T ! ~ ~               ",
"          ( 4 , ; ; S D J J J G G 3 '.jXbXMXA.* c                       `.A.t.B v 3 2 > , , , F G L Q Q  . .            ",
"        7 4 : : S J K Y T W W Q L - = ] rXnXrX1 ]                               XX].].'.'.'.'.{.,X>X>XeXzX              ",
"        7 H : : S D U T W ! W P D ; * * A.sXjX'.*X                                                                      ",
"        F H ; ; ; D K Y W W Y D S ; - * > >XiXrX                                                                        ",
"      3 F D S S S D J Y W Y J S ; - - * c >XrX                                                                          ",
"      , G P K K J P Y W T J S : - * > A.eXrX                                                                            ",
"      | P W T W E E T U J D S : , ] >XiX                                                                                ",
"      >X| ! ! ~ E T U J L I _ }.eXiX                                                                                    ",
"        lXuX4X4X . .4X,XuXiXjXiX                                                                                        ",
"            NXBXBXbXvXjX                                                                                                "
};
