/* XPM */
static char *dac6286ddc574cdca57af14aa25b3c2agLm6w02j70uSUTeC[] = {
/* columns rows colors chars-per-pixel */
"50 50 237 2 ",
"   c #020303",
".  c #0C0505",
"X  c #040904",
"o  c #0A0A06",
"O  c #02060B",
"+  c #09060A",
"@  c #030A0C",
"#  c #0B0C0C",
"$  c #110D0C",
"%  c #10040A",
"&  c #04120D",
"*  c #0D120D",
"=  c #0A1A0F",
"-  c #11120E",
";  c #11190E",
":  c #000711",
">  c #020D13",
",  c #0C0E12",
"<  c #040D1A",
"1  c #0C0614",
"2  c #130E13",
"3  c #170E16",
"4  c #021314",
"5  c #0B1313",
"6  c #011A15",
"7  c #0D1A14",
"8  c #02141B",
"9  c #0B151C",
"0  c #041A1D",
"q  c #0C1B1C",
"w  c #131413",
"e  c #191514",
"r  c #141A15",
"t  c #1B1B16",
"y  c #14151A",
"u  c #1A161B",
"i  c #141B1C",
"p  c #1B1C1C",
"a  c #231B1D",
"s  c #2A1D1E",
"d  c #24151A",
"f  c #0B221E",
"g  c #15211C",
"h  c #1D221D",
"j  c #162017",
"k  c #22221E",
"l  c #21291E",
"z  c #000C20",
"x  c #031621",
"c  c #031C23",
"v  c #0C1C22",
"b  c #0B1B28",
"n  c #141C23",
"m  c #1C1D23",
"M  c #141D2A",
"N  c #1A1E2D",
"B  c #141522",
"V  c #221D23",
"C  c #2A1D21",
"Z  c #291B2A",
"A  c #231F30",
"S  c #032224",
"D  c #0C2224",
"F  c #0D2A25",
"G  c #03232A",
"H  c #0C242B",
"J  c #032A2B",
"K  c #0C2B2D",
"L  c #042C23",
"P  c #132224",
"I  c #1C2224",
"U  c #112B26",
"Y  c #1C2925",
"T  c #14242B",
"R  c #1B242B",
"E  c #152A2D",
"W  c #1C2B2C",
"Q  c #0C322C",
"!  c #14342C",
"~  c #1C312A",
"^  c #0D2535",
"/  c #042B34",
"(  c #0C2B33",
")  c #0C2D3B",
"_  c #012734",
"`  c #132632",
"'  c #1B2531",
"]  c #142D33",
"[  c #1C2C33",
"{  c #122D3A",
"}  c #1C2D3A",
"|  c #03323B",
" . c #0D333B",
".. c #0D3737",
"X. c #143334",
"o. c #1B3334",
"O. c #13323A",
"+. c #1B343C",
"@. c #153A3C",
"#. c #1C3B3C",
"$. c #173D36",
"%. c #242324",
"&. c #2A2324",
"*. c #262A25",
"=. c #2A2B26",
"-. c #24252A",
";. c #2B252B",
":. c #242B2C",
">. c #2B2B2B",
",. c #322D2D",
"<. c #332629",
"1. c #24322E",
"2. c #2D322C",
"3. c #243025",
"4. c #32312D",
"5. c #242632",
"6. c #232C33",
"7. c #2C2D32",
"8. c #2A2937",
"9. c #322E32",
"0. c #342E3A",
"q. c #3C2D30",
"w. c #243234",
"e. c #2C3335",
"r. c #253937",
"t. c #23343C",
"y. c #2B353B",
"u. c #233B3B",
"i. c #2C3B3B",
"p. c #2C3A35",
"a. c #343334",
"s. c #3B3535",
"d. c #373834",
"f. c #343539",
"g. c #3B343B",
"h. c #343B3C",
"j. c #3A3B3C",
"k. c #383D37",
"l. c #433D3D",
"z. c #413535",
"x. c #0E413D",
"c. c #17433C",
"v. c #21413D",
"b. c #2B443E",
"n. c #3B413D",
"m. c #3D4037",
"M. c #0F3642",
"N. c #1A3345",
"B. c #133A44",
"V. c #1C3C44",
"C. c #1A3A48",
"Z. c #253541",
"A. c #243B42",
"S. c #2B3C43",
"D. c #223E49",
"F. c #2C3A49",
"G. c #343540",
"H. c #333B43",
"J. c #3B3D43",
"K. c #333E49",
"L. c #393544",
"P. c #233E53",
"I. c #443E44",
"U. c #08414B",
"Y. c #1B424B",
"T. c #1A4647",
"R. c #184C56",
"E. c #244245",
"W. c #2B4344",
"Q. c #22454B",
"!. c #2C454A",
"~. c #224A4B",
"^. c #2E4A4D",
"/. c #264845",
"(. c #344344",
"). c #3B4345",
"_. c #35444A",
"`. c #3D444C",
"'. c #344A4E",
"]. c #3B4B4B",
"[. c #2C504C",
"{. c #37524F",
"}. c #244B53",
"|. c #2B4C53",
" X c #264858",
".X c #354D54",
"XX c #3A4D53",
"oX c #374958",
"OX c #2C5253",
"+X c #285559",
"@X c #345155",
"#X c #3B5254",
"$X c #34535B",
"%X c #3C5759",
"&X c #3B625F",
"*X c #195963",
"=X c #245862",
"-X c #345D63",
";X c #3B5A67",
":X c #2E5468",
">X c #3C636A",
",X c #3A6664",
"<X c #3A6773",
"1X c #434443",
"2X c #4A4B45",
"3X c #43454A",
"4X c #444B4C",
"5X c #4B4C4D",
"6X c #4A4447",
"7X c #4A504D",
"8X c #53564F",
"9X c #4E4D51",
"0X c #414C58",
"qX c #474A55",
"wX c #534F50",
"eX c #455155",
"rX c #495253",
"tX c #44555C",
"yX c #47595C",
"uX c #515254",
"iX c #47625D",
"pX c #4A5B68",
"aX c #43656D",
"sX c #4A6368",
"dX c #536264",
"fX c #496976",
"gX c #4C7778",
"hX c #597578",
"jX c #536E6F",
"kX c #636A6D",
"lX c #527A83",
"zX c #5D7486",
"xX c #4D7982",
"cX c #6F7F86",
"vX c #578187",
"bX c #699394",
"nX c #6E94A9",
/* pixels */
"5 8 > }.>XC.O.c > # p 2X7XR 4 O 0 i s <.s . # r r ; % s <.3 y n ~ 3.f 7 Y p.e.7.J.R M ^ M. X=XB.M : ",
"O > H $X X/ G { 4 5 * =.e.T D D v i 3 a C e r h 7 r . 3 C V -.R g !.r.& w.h.P h.H.K.H.F.( _ R.Y.D + ",
"T O O G ) M./ ] > O   , i D { { [ 6., + 2 . 5 t 5 %.p d a V :.T } @X+.< S S.i.6.[ y.5.F.{ c C.T.R w ",
"[ 0 { V.M.B.) G < >   5 v v ( O.E o.9 > 9 , 5 Y m =.%.u + + I [ |.Y.< z c 4 K b 9 B < T [ E X.D n , ",
"< D +.V._ ) Y.{ 0 < > Y [ b ( O.c ( c D D > O + w y p -.+   # 9 M.;X X_ M./ 8 > 0 9 I M W e.q 5 m -.",
"T [ ( K ) }.aX|.` v 9 6.t.D E O.O.( G ( E x B 1 Z 3 i p.W @ + O z  XnX<XC.+Xc 4 v n >.i %.a.o @ y ;.",
"n [ W.{ H O.{ ] [ ' v R T v T ] { / B.=XQ.X.y.f.g.u 5 W q 5 *.8.^ z ;XlXY./ K X.W T p 2 t k X . m 9.",
"-.Y i.D D o.S t.[ [ 9 9 4 O 0 c c ^ -XvX}.c 9 1 1   5 w.U 7 9.h.F.N.x V. .c /.u.W :.i * *     o u 5.",
">.*.1.Y & 6 W o.[ y.y.y.6.6.:.  : 8 G / / K ` 5.B N W r.(.(.j.j.a.y.6.q D 4 D '.p.1.p w o     X u p ",
"=.h r *   5 1.i.w.6.R 6.y.i.h.:.v O.Y.T.B.N.Z.G.B n U [ r.y.a.>.4.4.h @ Y W Y g p.e.*.t e r * X # + ",
"- - j h ; ; 5 & 9 6.6.y.y.:.e.2.' ` ( O.V.E.D.Z.T T D E W w.8.;.<.<.a   r 1.2.1.i p i w r i j 5 # + ",
"t k =.2.3.h f 9 x t.} ' w.:.*.I Y < O 8 H H D S O > x ] y.y.6.%.&.&.k   * r 1.h.I i , @ 4 & & 6 X X ",
"X - t h h j i T < } } ^ N B W j.a.9.8.R n b J ( K G c v T 5.6.5.%.&.C # p n I 9 R i > > f ~ ! f X   ",
"5 t i h Y Y o.S.^ N.P.;XoX' R f.f.I.I.;.:.W.@X~.,X|.{ x < 9 N R y >.7.y I 6.5.O 1 > > 5 1.eX[.U = * ",
"w.6.r @ = q E A.oXP. XxXzXpXK.n d <.C 3 p y./.c.R.T.Z.N.5.M 9 > 9 -.y.n N 6.8.b 9 n M R o.c.Q f = = ",
"6.e.Y I :.I v b ) P.P.N.N.Z.0XL.C d d d 3 > S ..,X&X$XK.F.' x : M v ' R 6.R R > B T y.(.~ 6 6 U 7 r ",
":.n I ;.8.f.R > H ` N.u.[ h.3Xg.,.l.6X5X3Xe.R w.'.^..X@X` x } H ' } E n 5 y p h r h i 7 7 7 5 @ ; r ",
"@ 5 p I u y B 9 > 8 U W [ 8.0.9.;.h.j.f.I.3X8.T '.tX+.H V.A.F.oXjXF.n T -.5 X * X ; j =     # r *.*.",
":.r , 2 y -.G._.Z.u.E D n y m 7.).).e.:.J.3X:.> 4 H c G D.$XfXzX!.] ' h.h.p # t # * ; & X w m =.2.2.",
"e.e * V 9.L.h.6.S.!.!.!.K.T : , Y :.e.7.:.M n D S ( ( @.Q.V.M.+.S ' r.8.i o o # ; ; * ; p -.a.a.2X2X",
"*.; o + + 9 m W ] +.W..X#Xr.B i I n n n n I M q Q.%X$X-XlX$X8 c +.y.W >   O w w o r h h h I >.g.a.d.",
"# - a -.m i n q q 8 4 4 0 4 8 R w.w.Y i -.`._.D 4 K -XgXlX Xc 8 T v > # + w t t * * r p %.p u V t k ",
"=.=.=.>.>.p.(.W.o.U K { ! [ t.w.i y.).7.m y.eXXX0 J vXbX}.B.C./ v 9 , , 3 2 # . t 7 5 i p u 3 + 2 w ",
"=.2.a.2.:.p.i.y.X.E E.'.'.'.XX(.(.a.7.p , y M 4 O S $XY.x ( Q.;XtXH.N , u >.7.%.w r t i w O # u u r ",
",.4.k.2.p.Y E o.E ] u.E ] !._.b.J.:.$ 1 V -.6.6.E +.+.8 x N.( N.S.h.-.y V ;.V t 2.e.:.2.8.  1 3 u y ",
"l =.:.j q 4 4 6 U D q 4 D W U i., e V 9.I.I.L.G._.XX!.K H ` H ' y.`.L.>.8.7.%., @ Y :.I a.%.V V 2 w ",
"o * 5 i f f D F o.w.W q 1.i.P 5 *.a.s.g.g.9.7.7.R R > < T M T ' Y f.f.V m -.%.%.J.rX).i :.e.Z -.y y ",
"p t i ~ f F 6 & 9 y.yX).I 7 & & k 9.s.q.9.<.,.f.y.v > sXcXZ.8 x 9 n 5.7.%.3 , n h.eXdXw.y m u V m p ",
"j :.1.r.o.{.b.U q q rXkXj.w = h t k t e e a >.3XjX0X5 E _.' ' R 9 m -.:.-.B Y ).).(.dXi.  , 5.f.6X6X",
"@ P 1.o.v.jXhX{.y.    +   X t *.4.*.e o .   # -.a.4Xf @ x 6.`.6.e.h.*., , -.J.uXkX].(.w.@ :.5X9X9X9X",
":.I w.o.K ! v.f 4 I >.a w - - ; l l =.d.4.-   # i Y 4 0 n 8 R y.H.).e.y 1 i m W y.W 9 Y n e.J.L.9X9X",
"6.O U u.X.@ & 6 h.5XwXz.s.t   j 3.2.m.8X8X=.r *.Y ).W @ 4 W y.w.f.>.i o @ , i W X W 4 0 @ O p h.H.h.",
"i @ > D ] o.E O m I.q.d k t = 3.2.4.8X2Xk ; & >.n.).rX].W g W w.>.*.=.X r j.5X2.5 @ i 9 T P I P ] X.",
").h.E H /.,X%X' V ,.q.&.k k j h d.1X1X; X a e o h k.n.1X5X>.# r t h >.- %.j.4Xh.y   # n y W ).XXsXaX",
"1.~ F Q +XgX,X#.0 i *.a     I k.s.l.&.p ,.d.&.$ $ V l %.>.p e a.=.-.=.5 y :.e.e.4 6._.eXW 9 O 8 M } ",
"1.w.F S x.+X,XgXu.P w t 3 2 2 # >.>.o ;.wXl.,.a &.e s ,.<.C &.&.a.f.).f.h.e.q 5 Y dX_.S.tX.X8 v t.Z.",
"r Y 0 & 6 f B.,XiXS.I m 9.0.5.5.6.h.  , 7.a.a.m 2 p s.1Xa $ s s.f.h.J.`.rX).9 > _.cXdXZ.'.[ ] ^.$X X",
"o *.h.r.O.@.+.A.D n 9 i R m M t.W y.4 i e.h.).a.j.=.    ,.q.t a j.h.e.H.`.`.R 6._._.K.S.K.} tX;XjX<X",
"s k 4.j.H.H.L.K.m B 8.`.eX.XN.G G D F #XsX].].].4Xn.g r k.d.*   m 7.h.3X4X).n R y.y.i.'.T 8 '.tX^.!.",
"s.d a 0.f.8.L.I.;.m L.yX.X;XlX<XS c $.sXjX#XW.r.y.W Y Y *.2.l $   t m %.I m   n i w.P y.W q q > 9 9 ",
"<.>.u ;.L.0.L.5.B 1 i [ $X>XR.=X|.|.E.@X'.X.o.t.g q i 7 *.m.4.,.l -.4.&.=.h # h h.J.j.e.:.i @   %.;.",
"h.:.9 i B B R v S.R E E #.@./ B.D.S.E.oXS.] t.w.5 O e =.j.1X4.q.,.t a =.j.s.p k - w w - r t i p %.&.",
"b.iXW.$.!.G 6 X.X.v./.W.] : c P.oXoXoX0X_.y.H.G.m 1 1 $ e <.s.I.l.e $ e e - $ e p e . X t =.4.a.4.a.",
"Q /...[.bXgXJ S $.c.c.[.S.8 z b ' b N t.R N 0.8.-.m Z u + 3 d V k . w ,.4.,.>.4.1X4.t $ %.s.s.4.=.2.",
"&Xc.#.~.}.$XOXc.L ! ! eXdX`.qXqXoXK.K.K.T < < R N m R ;.>.-.-.%.t X 5 >.j.1X3Xj.l.j.&.e s >.,.,.,.=.",
"hXOX!.!.F.'.X.  f ! 1.p.w.i 5.`.Z.+.A.} D 8 v u.t.E 4 T i.i.i.].`.n.e.a.2.:.d.a.>.f.9.p e u %.,.a.d.",
"+.A.F.T N A 2 3 t r - r j I M 6.$.@...J @.V.J X.E.[.K K E.v.$.o.w.b.h.).y.9 5 n :.f.9.u , 3 u V >.,.",
"B < N y 1 Z d % . . t # & 7 O v S S 8 4 ~.fXT...J ,XE.6 K T.+XR..X@XS.#XeX:.Y *.8.7.n + 1 w 3 $ -.-.",
"I O # # %.>.$ % e =.=.4.k p ; I Y F T : | =X+XR.@.X.0 8 x O.*X*X<X-X$XT.W w.:.a.a.>.-.    y p $ a # ",
"e   o - t l o o - *.=.k.4.=.k l p.u.t.> | R.U...O.D 0 n M ^ R.*XM.| / 0 4 q i p %.%.%.  + p >.=.k - "
};
